<svg xmlns="http://www.w3.org/2000/svg" viewBox="0 0 156.96 158.78"><defs><style>.cls-1{fill:#ffc98e;}.cls-2{fill:#fff7ec;}.cls-3{fill:#656563;}.cls-4{fill:#ffe7de;}.cls-5{fill:#ffd2c8;}</style></defs><title>Asset 2</title><g id="Layer_2" data-name="Layer 2"><g id="Layer_2-2" data-name="Layer 2"><path class="cls-1" d="M.75,109.71c-1.1,11.63-2,22.68,5,32,6.37,8.52,16.32,11.61,24,14,10.6,3.3,19.58,3.16,26,3,12.83-.31,12.67-2.75,25-3,12-.24,13.25,2.06,28,2,8.31,0,13.42-.09,20-2,3.49-1,13.21-4,20-11,10.51-10.88,8.5-28.07,7-41a105,105,0,0,0-18-47,24.5,24.5,0,0,0,10-5c2.13-1.79,6.78-5.69,7-11,.16-4.17-2.59-4.6-4-10-1.83-7,2-9.08,1-17-.25-1.89-1.4-10.41-7-13-5-2.3-11,1.49-15,4-9.49,6-14.46,14.87-17,21a51.56,51.56,0,0,0-17-10,53.18,53.18,0,0,0-34,0,54.57,54.57,0,0,0-14,7,154.66,154.66,0,0,0-17-15c-9.08-6.87-11.81-7.3-14-7-5.79.8-10.88,7-12,13-1.22,6.41,2.8,9,1,16-1.34,5.22-3.88,5.07-4,9-.2,6.12,5.8,11.28,10,15a40.29,40.29,0,0,0,7,5C5.18,80.11,1.75,99,.75,109.71Z"/></g><g id="Layer_4" data-name="Layer 4"><g id="Layer_3" data-name="Layer 3"><path class="cls-2" d="M67.75,41.71c.86-5.23,2.08-7.53,4-9a11.55,11.55,0,0,1,7-2,12.21,12.21,0,0,1,7,2,12.47,12.47,0,0,1,5,8v28a18.79,18.79,0,0,0,1,3c4.06,9.58,14.74,13.51,19,15,8.08,2.85,8.47.57,14,3,11.27,5,15.68,17.1,16,18,4.41,12.69-.27,26.92-9,35-10.12,9.37-25.8,10.59-36,8-4.55-1.15-9.28-3.38-17-3-6,.3-9.54,2-13,3-10.39,3.11-26,2.29-37-6-8.93-6.71-17.84-20.59-14-35,2.95-11.09,12.77-19.39,22-22,5.47-1.54,6.23.15,13-2,3.74-1.19,12.83-4.21,16-12a20,20,0,0,0,1-4C68.88,58.23,65.9,52.9,67.75,41.71Z"/></g><path class="cls-3" d="M48.82,61.53c-3,0-5,8.19-5.17,9-.82,3.45-2,8.2,1.29,10a7.64,7.64,0,0,0,6.46,0c2.32-1.14,2.7-3.38,3-5.16a18.59,18.59,0,0,0-.4-4.84S51.5,61.56,48.82,61.53Z"/></g><g id="Layer_5" data-name="Layer 5"><path class="cls-3" d="M110,61.53c-3,0-5,8.19-5.17,9-.82,3.45-2,8.2,1.29,10a7.66,7.66,0,0,0,6.47,0c2.31-1.14,2.62-3.39,3-5.16.13,1.34-.41-4.84-.41-4.84C114.65,68.32,112.72,61.56,110,61.53Z"/></g><g id="Layer_7" data-name="Layer 7"><path class="cls-4" d="M79.75,106.71c-4-.22-11.21-.62-15,4-3.19,3.89-2.1,9.06,0,19,1.85,8.8,4.2,10.5,5,11,2,1.28,4.66,1.18,10,1,5.9-.2,8.85-.3,11-2,2.42-1.91,3-4.63,4-10,1.67-8.82,2.51-13.23,0-17C91.17,107.34,83.64,106.93,79.75,106.71Z"/></g><g id="Layer_6" data-name="Layer 6"><path class="cls-5" d="M65.75,115.71c1.78-1.92,5.71,1.82,13,2,8.18.21,12.8-4.26,15-2,1.41,1.47.64,4.52,0,6-1,2.32-2.47,2.51-7,6-4.84,3.73-5.14,5-7,5s-2-1.16-7-5c-4-3.07-4.89-3.16-6-5S64.35,117.21,65.75,115.71Z"/></g></g></svg>